<svg height="92" viewBox="0 0 80 92" width="80" xmlns="http://www.w3.org/2000/svg"><path d="m241.761088 72.8959083c.46868 1.12408.750618 2.5301175.937359 3.5627114v.2819386c.281938 2.0651878.468679 4.3133479.563877 7.1254228v2.2481601c0 .4686791-.091542 1.0288819-.186741 1.5927592-.18674 1.3108018-.373481 2.8120749.095199 3.9361549.373443.9373396 1.032556 1.1240801 1.406037 1.1240801 2.25191 0 4.968768-6.1843338 5.250706-6.9349516.091543-.1867405.186741-.2782829.186741-.373481.091542-.0951981.091542-.2819387.18674-.5638773.281958-.8421227.842142-2.9035985 1.592759-2.9987966h.281939c.091542 0 .091542.0915424.186741.1867405.18674.2819574.377136 1.0325939-.186741 3.280754-.281939 1.1240801-.65542 2.2481601-.937358 3.280754-.377174 1.2155663-.750656 2.4348819-1.032594 3.6541976-.560184 2.2481601-.281976 3.8446312.750618 4.6867914-2.530118.2819574-4.686792 0-6.561508-.9373583-.281939-.0915424-.563878 0-.750618.2819387-.091543.2819386 0 .5638772.281938.7506177 2.343396 1.1240988 4.968749 1.4060375 8.154268.8421602 1.969952-.2819574 3.844668-.9373958 5.719385-1.501273 1.314551-.4686604 2.625353-.8421415 3.844669-1.1240801 1.310802-.2819386 5.15547-1.2193156 7.216909 0 .655438.4686792 1.032575 1.0288632 1.219315 1.779481.750637 3.2807544-2.061438 4.8735324-4.500069 5.6241494-1.310802.373481-2.434901.560222-3.185519.65542-5.901607.655401-11.994811-.937358-16.776838-4.2181123-.278283-.1867405-.65542-.0951981-.842161.1867405-.095198.2782829-.095198.6554197.186741.8421598 4.309036 2.998797 9.55993 4.591556 14.902122 4.591556.845872 0 1.783193 0 2.625353-.095198.655401-.095198 1.779481-.190396 2.998797-.563877h.095198c5.62415 1.496961 11.247924 6.279176 17.245518 14.433443 4.127001 5.528539 7.499241 12.280893 10.875231 21.090561-1.969953.563915-4.595306.563915-6.188065-.937358-.278283-.281939-.65542-.18674-.84216 0-.281939.278283-.281939.65542 0 .84216 2.156674 1.969952 5.528914 1.969952 7.967545 1.032594.750637-.28192 1.497561-.655401 2.061439-1.12408 2.4349-1.874717 2.812037-5.250706 2.716839-8.062781 1.497524.278208 2.248179 2.152925 2.530117 3.185518.46868 2.061439-.186721 4.50007-1.687994 6.374787-1.028845 1.219315-2.434882 2.156674-4.122877 2.625353-2.156674.655419-4.873513.655419-7.312145-.095198-.377136-.095198-.655419.091542-.750617.373481-.095198.377136.091542.655419.373481.750617 1.406037.46868 2.812075.65542 4.218112.65542 1.028844 0 2.152925-.091542 3.185518-.373481v.095198c.563915 2.061439 1.783231 3.749433 2.907311 5.342193.27877.378242.469166.751723.747449 1.125204 1.406038 2.061439 1.688014 3.280773.65542 4.031386-1.219316.845835-3.185518-.091542-4.218112-.842155-2.061439-1.497524-2.716858-3.84092-2.998797-5.342193.655401-.377155 1.124118-.750636 1.687995-1.219315.18674-.278283.18674-.560222 0-.84216-.278283-.186741-.560222-.186741-.84216 0-.563915.468641-1.219297.93732-1.874717 1.310801-2.438631 1.406057-5.345942 1.874736-8.062781 1.219316-.281939 0-.560221.186741-.65542.468679-.095198 0-.18674.095198-.281938.281939-.878774 2.550552.633595 4.521768 2.138467 6.302926l.300164.353813c.468679.560165 1.032557 1.215604 1.406038 1.779481.655419 1.032594 1.314495 2.533829.750617 3.375989-.842122 1.219316-3.185537.095198-3.467475 0-5.437447-2.625539-7.407381-10.311311-6.188065-16.030696v-.281939c.186741-.281939 0-.65542-.281939-.750618-4.405021-1.783605-7.312332-5.906482-10.124406-9.937872-.845873-1.219316-1.596472-2.343396-2.438632-3.37599-3.376177-4.404834-7.030374-9.000139-11.061765-13.123016-.563915-.655401-1.219297-1.310839-1.874717-1.874717-1.219315-1.12408-2.998796-2.343414-5.342192-2.625353-.281976-.095198-.659113-.095198-1.032594-.095198-2.061438 0-4.782027.468679-6.561508 1.874717-.659113.563914-.845853 1.406056-1.032594 2.156674-.28192 1.124099-.373462 1.406037-1.12408 1.406037-1.406075-.091486-1.969952-1.779481-1.969952-2.998797 0-3.657946 4.877263-5.250687 8.062781-5.437427.281939 0 .468679-.091543.563877-.373482.095198-.281938 0-.560221-.18674-.655419-1.310802-.845872-2.625353-1.783193-3.936155-2.625353-1.219316-.842123-2.530118-1.687958-3.749433-2.530118-.281939-.18674-.563877-.468679-.750618-.655419-.937358-.937359-1.592759-2.061439-2.061438-3.280754-1.687995-4.6867919.373443-10.2155185 2.24816-15.1842674l.468679-1.3108018c.563915-1.5927592 1.314532-3.5627114 1.501273-5.6241497.095198-.6591504.095198-1.3145326.095198-1.9699522 0-.9373583.095208-1.8747166.278283-3.1745513 0-.0237996.00595-.0473706.014875-.0708274l.065448-.1402839.014875-.0708274c.563915.2819387 1.406075.1867406 1.969952.1867406.655401 0 1.779481-.1867406 2.24816-.8421602zm-9.747513 29.1425067c.468679 1.028844 1.032575 1.874679 1.687994 2.716839-.091542.095198-.091542.095198-.18674.095198-3.185519 1.779481-3.840957 5.342193-4.404834 8.436225-.091543.278283-.091543.560222-.186741.84216-.468679 2.24816-1.497523 4.873495-2.998796 5.528914-.563915.190396-1.219335.095198-1.969953-.373481-3.189249-2.061626-1.874697-7.217096-.281938-10.124407 1.966221-3.657628 5.528933-5.810646 8.341008-7.121448zm14.620352 13.492654c1.501273.095236 2.812075.750636 4.313348 1.969952-.091543.091542-.186741.091542-.186741.186741-.468679 1.127792-1.124061 1.783211-1.779481 1.969952-.377155.095198-.750636.095198-1.219316-.186741-1.219334-.655401-1.874754-2.343395-1.501273-3.654197.095199-.095198 0-.186741 0-.281939.09518-.000103.28192.09143.373463-.003768zm-6.557412-23.057308c-.655401-1.5012731-3.375971-.5639148-2.625353 1.12408.373547 1.7832304 3.562711.655401 2.625353-1.12408zm3.936146-15.0888251c1.687994-1.7832117 4.126626-1.592778 5.719385-.7506178 1.687957.9373583 2.434919 2.5301175 2.061438 4.4048341h-.095198c-1.406037.0952356-2.061438 2.3433957-2.530117 3.7494331-.091543.1903962-.091543.3771368-.186741.5638773v.0951981c-.18674-.0951981-.281939-.0951981-.468679-.0951981-1.219316.3734435-2.907311-.0952356-4.031391-1.0325939-.095216-2.8120561-.281957-4.9686363-.563896-6.9349328zm-4.408678-6.37503c.186722 0 .750637-.0915424 1.219316.2819386.095198 0 .468679.2819387.563877.6554197.095198.0915424.095198.1867405.095198.373481-.095235.7506178-1.314532.9373583-1.969952.9373583-.563783 0-1.501179.1867312-2.061401-.2782829l-.095198-.0951981c.373444-.9373583 1.215566-1.8747166 2.24816-1.8747166z" fill="#090b0d" fill-rule="evenodd" transform="translate(-222 -70.992172)"/></svg>