<svg height="46" viewBox="0 0 154 46" width="154" xmlns="http://www.w3.org/2000/svg"><g fill="#042740" fill-rule="evenodd"><path d="m48.072 39.976c1.024 0 1.648-.216 1.872-.648.128-.24.204-.452.228-.636s.036-.46.036-.828v-2.712h3c1.424 0 2.8-.512 4.128-1.536.656-.496 1.192-1.164 1.608-2.004s.624-1.78.624-2.82-.208-1.984-.624-2.832-.952-1.52-1.608-2.016c-1.328-1.024-2.696-1.536-4.104-1.536h-5.136c-1.024 0-1.648.216-1.872.648-.128.24-.204.452-.228.636s-.036.46-.036.828v13.32c0 .56.048.976.144 1.248.192.592.848.888 1.968.888zm5.16-9.072h-3.024v-4.248h3c.496 0 .976.18 1.44.54s.696.892.696 1.596-.232 1.232-.696 1.584-.936.528-1.416.528zm13.632 9.408c3.408 0 5.112-.712 5.112-2.136 0-.304-.104-.672-.312-1.104-.368-.72-.808-1.08-1.32-1.08-.256 0-.576.088-.96.264l-.264.096c-.528.192-1.256.288-2.184.288-.528 0-1.056-.152-1.584-.456s-.792-.68-.792-1.128h5.688c.592 0 1.132-.236 1.62-.708s.732-1.196.732-2.172c0-.992-.272-1.904-.816-2.736-1.04-1.568-2.672-2.352-4.896-2.352-1.952 0-3.58.604-4.884 1.812s-1.956 2.82-1.956 4.836c0 1.6.504 3.048 1.512 4.344.512.672 1.228 1.212 2.148 1.62s1.972.612 3.156.612zm.672-7.44h-3.024c0-.48.256-.932.768-1.356s1.028-.636 1.548-.636.92.112 1.2.336.42.52.42.888c0 .512-.304.768-.912.768zm13.08 7.128c.352 0 .62-.012.804-.036s.396-.092.636-.204c.448-.224.672-.84.672-1.848 0-.864-.184-1.4-.552-1.608-.224-.128-.436-.204-.636-.228s-.488-.036-.864-.036-.632-.096-.768-.288-.204-.504-.204-.936v-3.312l1.56.096c.368 0 .644-.012.828-.036s.396-.092.636-.204c.432-.224.648-.84.648-1.848 0-1.024-.208-1.64-.624-1.848-.24-.128-.452-.204-.636-.228s-.456-.036-.816-.036-.892.032-1.596.096v-2.352c0-.56-.04-.968-.12-1.224-.208-.592-.856-.888-1.944-.888-1.024 0-1.64.2-1.848.6-.128.208-.204.4-.228.576s-.036.448-.036.816v2.472l-.792-.096c-.384 0-.704.104-.96.312-.144.128-.256.34-.336.636s-.12.772-.12 1.428.116 1.12.348 1.392.524.408.876.408.68-.024.984-.072v3.552c0 1.792.432 3.064 1.296 3.816s2.128 1.128 3.792 1.128zm20.976-.024c.464 0 .848-.048 1.152-.144.608-.192.912-.84.912-1.944v-13.32c0-.368-.012-.648-.036-.84s-.1-.408-.228-.648c-.224-.432-.844-.648-1.86-.648s-1.66.216-1.932.648c-.912 1.152-2.728 3.528-5.448 7.128l-5.448-7.152-.144-.144c-.096-.112-.3-.22-.612-.324s-.684-.156-1.116-.156c-1.008 0-1.632.208-1.872.624-.128.24-.204.452-.228.636s-.036.46-.036.828v13.32c0 .384.012.672.036.864s.1.4.228.624c.24.432.848.648 1.824.648 1.008 0 1.632-.216 1.872-.648.128-.224.204-.428.228-.612s.036-.46.036-.828v-8.088c.08.096.592.796 1.536 2.1s1.576 2.156 1.896 2.556l.192.264c.128.16.34.324.636.492s.624.252.984.252.696-.092 1.008-.276.508-.328.588-.432.224-.292.432-.564.696-.948 1.464-2.028 1.352-1.868 1.752-2.364v8.04c0 .56.04.976.12 1.248.08.208.192.368.336.48s.352.208.624.288.64.12 1.104.12zm14.484-.024c.872 0 1.42-.208 1.644-.624.112-.24.18-.452.204-.636s.036-.46.036-.828v-8.4c0-.368-.012-.644-.036-.828s-.096-.396-.216-.636-.332-.408-.636-.504-.768-.144-1.392-.144c-1.168 0-1.8.448-1.896 1.344-.112-.16-.256-.324-.432-.492s-.488-.348-.936-.54-.944-.288-1.488-.288c-1.424 0-2.732.628-3.924 1.884s-1.788 2.72-1.788 4.392.592 3.14 1.776 4.404 2.468 1.896 3.852 1.896 2.372-.424 2.964-1.272c.048.416.22.732.516.948s.88.324 1.752.324zm-4.524-4.2c-.592 0-1.096-.212-1.512-.636s-.624-.9-.624-1.428.196-1.016.588-1.464.904-.672 1.536-.672 1.136.224 1.512.672.564.932.564 1.452-.196.996-.588 1.428-.884.648-1.476.648zm18.84 4.224c1.024 0 1.648-.216 1.872-.648.112-.224.18-.428.204-.612s.036-.46.036-.828v-4.224c0-1.76-.532-3.252-1.596-4.476s-2.396-1.836-3.996-1.836c-.656 0-1.256.184-1.8.552-.208.128-.424.296-.648.504s-.368.368-.432.48c0-.384-.08-.712-.24-.984-.224-.368-.824-.552-1.8-.552-1.008 0-1.624.2-1.848.6-.128.224-.204.428-.228.612s-.036.452-.036.804v8.496c0 .368.012.644.036.828s.092.396.204.636c.224.432.84.648 1.848.648 1.024 0 1.64-.216 1.848-.648.128-.224.204-.428.228-.612s.036-.46.036-.828v-4.248c0-.624.196-1.128.588-1.512s.904-.576 1.536-.576 1.136.184 1.512.552.564.88.564 1.536v4.224c0 .544.048.952.144 1.224.176.592.832.888 1.968.888zm6.132-14.328c.504 0 .908-.048 1.212-.144s.512-.256.624-.48c.128-.24.204-.452.228-.636s.036-.46.036-.828-.012-.644-.036-.828-.1-.396-.228-.636c-.208-.432-.816-.648-1.824-.648-1.024 0-1.648.216-1.872.648-.112.224-.18.428-.204.612s-.036.46-.036.828.012.644.036.828.096.396.216.636.332.408.636.504.708.144 1.212.144zm-.012 14.352c1.024 0 1.64-.208 1.848-.624.128-.24.204-.452.228-.636s.036-.46.036-.828v-8.4c0-.304-.008-.536-.024-.696-.016-.464-.16-.808-.432-1.032-.32-.272-.864-.408-1.632-.408-1.024 0-1.648.208-1.872.624-.112.24-.18.452-.204.636s-.036.46-.036.828v8.424c0 .384.012.664.036.84s.092.384.204.624c.224.432.84.648 1.848.648zm14.532-.048c.872 0 1.42-.208 1.644-.624.112-.24.18-.452.204-.636s.036-.46.036-.828v-8.4c0-.368-.012-.644-.036-.828s-.096-.396-.216-.636-.332-.408-.636-.504-.768-.144-1.392-.144c-1.168 0-1.8.448-1.896 1.344-.112-.16-.256-.324-.432-.492s-.488-.348-.936-.54-.944-.288-1.488-.288c-1.424 0-2.732.628-3.924 1.884s-1.788 2.72-1.788 4.392.592 3.14 1.776 4.404 2.468 1.896 3.852 1.896 2.372-.424 2.964-1.272c.048.416.22.732.516.948s.88.324 1.752.324zm-4.524-4.2c-.592 0-1.096-.212-1.512-.636s-.624-.9-.624-1.428.196-1.016.588-1.464.904-.672 1.536-.672 1.136.224 1.512.672.564.932.564 1.452-.196.996-.588 1.428-.884.648-1.476.648z" fill-rule="nonzero"/><path d="m17.1541867 1.03558629c1.648-1.38078172 4.04384-1.38078172 5.6917333 0l15.55408 13.03932761c1.01456.8485731 1.6 2.1057163 1.6 3.4341461v22.49094l-11.4465772.0005261c-.0750661-.0671452-.1481704-.1305121-.2169453-.1901315l-.0769989-.0680537c-.3581565-.3320684-.6136528-.7615196-.732653-1.2367183-.3289918-2.1377938-.305666-3.8580013.0676656-5.2566237.1073105-.4153633.2869846-.8072672.5319827-1.1592807.1236594-.164277.2566581-.3226636.3966575-.4740273.3150023-.3191822.5798199-.6829105.7886526-1.0795002.4853312-1.0466989.3931601-2.2716725-.2449981-3.2314719-.0070007-.0117147-1.8153267-3.2266357.0303324-4.9772716.2660242-.2510864.9310026-.4834231 1.4490078-.5819833 1.1176654-.2135391 1.9226565-.4599516 2.3893211-.7345155.0116677-.0070409.0233342-.0152532.0350006-.0234686.0629885-.0446062 1.5236562-1.1147046 1.6823222-2.4335464.0641533-.5526664-.1108347-1.1053027-.4806721-1.5183232-.3033245-.299216-.7034763-.4763912-1.1269837-.4998598-.5553384-.0398903-1.5749803-.1924225-2.2586551-.7767488-.2403062-.3543565-1.5329895-2.1355018-3.2223003-2.2716123-.3325041-.053972-.6685026-.0797985-1.0056659-.0775753-1.5608251 0-4.4051942.5068732-5.9685281 3.8909373-.1213178.1994514-.6019898 1.095931-1.1246541 3.5177326-.1679993.7697198-.3313214 1.3939664-.5109866 1.964205-.3044893.9844304-.7338207 1.9254561-1.278646 2.7996176-1.0523772 1.6720569-2.3251992 3.192723-3.7846871 4.5197952-1.0161491.8894207-1.9705043 1.8480486-2.8559872 2.8676834-.0013996.0028152-.0288393.0351991-.0636714.0758628l-.0739954.0860592c-.317332.4153634-.5973397.8577008-.8353371 1.3235278-.07816073.159576-.24032107.2604852-.41765361.2604852-.07233376 0-.14349974-.0175992-.207665-.0492801-.1108347-.0551465-.19483433-.1525352-.23450007-.2710435-.03966574-.1173339-.03033245-.2464035.02449952-.357871.24732476-.4846006.53434215-.9469131.85866286-1.3822216-.50050339-.5350342-.86801109-1.1815388-1.0733435-1.8867374-.32433264-1.2379499-.2811755-2.5438754.12366536-3.7571342.62779454-1.9147928 2.18870914-3.2219168 4.07170454-3.4119993.5483196-.056321 2.2096515-.2252839 2.0743203-1.6333081-.0443219-.4740573-.4060057-1.2672367-2.3193155-1.2672367h-.1213328c-1.5467878.0304884-3.30386579.7838076-4.69920037 2.0111241-1.06166566.9363098-2.00198359 2.5085809-2.52697752 3.6655187-1.68949006 3.7313918-.67225086 8.6875167 2.3167918 11.2853101.29865338.2886337.46315227.6887679.45498676 1.1053027-.03263741.4334929-.02479045.8455392.02283053 1.2346059l-8.4094732-.0007497v-22.4911009c0-1.3283762.58549333-2.5855731 1.60005333-3.4341461zm6.2543367 24.96198451.0583323.5890122c.016334.1584106.1096669.296867.2496663.3707872l1.2250057.6336184c.197149.1243867.3686576.2851222.5086569.4716843.0466665.0633618.093333.1337615.1399994.2041643.2251638.3977612.5506792.7286521.945007.9574564.0746663.2288283.0700012.4775688-.0116659.7040271-.0186666.0328554-.0700011.1149879-.2963327.1384565l-1.3859864.1713088c-.1493326.0117148-.9986472.107926-1.4023233.7016542-.2216664.3390972-.2695007.762691-.1283335 1.14285.0023326.0117328.0070007.0234686.0116658.0352014.0006213.0017221.0055255.014406.0139488.0371754l.0350629.0976889c.1910664.5468384.847745 2.6500788.291646 4.3849308-.0070007.0175992-.0116658.0375473-.0139984.056321-.0446976.23424-.3495419 1.9439476-.170582 3.3071109l-6.7572923-.0010186.0002273-.8608702c0-1.1058835.8803791-2.2599676 1.8037554-2.9679792l.1632247-.1202121c1.2914886-.9831388 2.0288276-2.5367264 1.9763282-4.1653485-.0793255-1.4174861.049011-4.6935341 2.7439878-5.8880192zm2.4199776-11.6044022c.2660212-.0328554.9870083-.0398962 1.0943397-.0328554-.4713208.6479164-.9029848 1.8329096-.3056541 3.8229171.2613321.8681539.5530087 2.4427981-.4199832 3.2359775-.3803503.2792589-.8586628.3860314-1.3206682.2933376-.5565032-.0692072-1.0616657-.3625568-1.3999938-.8119531-.6370233-.9551165-.1890253-2.2317251.3896388-3.4684434.0793315-.1736488.1656637-.3731181.2543314-.5866692.3756613-.8870478.8890073-2.0979636 1.644989-2.4194587.0221669-.0093838.0431691-.0199451.0630004-.0328524zm7.4933532 3.0413623c.1738232-.0715742.3744905-.0316809.5086569.1020806.1329987.13493.1726644.3367453.1014984.5115746-.0723367.1760008-.2426626.2898172-.431661.2898172-.1236594.000015-.2426596-.049256-.3301596-.1372669s-.136499-.2076937-.136499-.3320685c0-.1900795.1131643-.3613883.2881643-.434137zm-4.8975154-1.6427099c.1738233-.0715742.3744905-.0316809.508657.1020806.1329986.13493.1726644.3367453.1014984.5115746-.0723368.1760008-.2426626.2898172-.431661.2898172-.1236594.000015-.2426596-.0492651-.3301596-.1372669-.0875-.0880109-.136499-.2076937-.136499-.3320685 0-.1900795.1131643-.3613883.2881642-.434137z"/></g></svg>