<svg height="119" viewBox="0 0 137 119" width="137" xmlns="http://www.w3.org/2000/svg"><path d="m1020.69056 116.717267c-4.47205.166529-6.99869-1.296184-7.57993-4.388137s1.12794-5.222677 5.12754-6.39217c32.05412-7.2971009 67.0651-18.5370573 87.07269-29.397319-2.74734-1.7199376-5.3507-3.8717432-7.832-6.4623624-8.1772-8.5493012-11.67241-18.962625-9.58678-28.577503 1.74764-8.0312511 7.15593-14.3928405 14.85132-17.4585847 8.41452-3.3535088 17.84315-.1655107 24.60305 8.3190158 7.16311 8.9955023 10.95327 24.3015628 3.0421 37.4425716 2.66817-.5685103 5.49468-1.4536722 8.50088-2.6554675 15.14626-6.0233462 26.12199-19.8119177 26.22877-19.9482467 2.76087-2.7896454 5.36082-3.2684888 7.79984-1.4365302s2.73505 4.5848555.8881 8.2586905c-.51782.6620799-12.85921 16.2423091-30.83897 23.3951593-8.97552 3.5694245-17.06638 4.8862888-24.35818 3.9148526-7.81046 5.3324899-18.98576 10.7731218-33.42024 16.2782336-18.28189 6.9660431-41.79187 13.9250851-64.48935 19.0989541zm88.59845-82.6517835c-.86286 0-1.75401.159748-2.66646.5300645-4.15167 1.699084-7.07251 5.2062168-8.00623 9.6209429-1.27306 6.0122063 1.15284 12.8449011 6.65536 18.7481799 3.22501 3.4563122 6.6836 5.8160995 10.51697 7.0867971 1.71157-1.473998 3.06243-2.9116745 4.01009-4.3202974 5.99757-8.9311303 3.43016-19.8151495-1.49232-26.1612021-1.12454-1.4522125-4.67494-5.5185005-9.01763-5.5185005z" fill="#ffd100" fill-rule="evenodd" transform="matrix(.95105652 -.30901699 .30901699 .95105652 -997.003594 322.477423)"/></svg>